<mxfile host="app.diagrams.net" agent="Mozilla/5.0 (Windows NT 10.0; Win64; x64) AppleWebKit/537.36 (KHTML, like Gecko) Chrome/130.0.0.0 Safari/537.36 Edg/130.0.0.0" version="24.8.3">
  <diagram name="Página-1" id="_GZ4K2GcZ5KgbraVk6rI">
    <mxGraphModel dx="2215" dy="706" grid="1" gridSize="10" guides="1" tooltips="1" connect="1" arrows="1" fold="1" page="1" pageScale="1" pageWidth="827" pageHeight="1169" math="0" shadow="0">
      <root>
        <mxCell id="0" />
        <mxCell id="1" parent="0" />
        <mxCell id="VpEEWy_6uG5d31zKWLwI-40" value="(1,N)" style="text;html=1;strokeColor=none;fillColor=none;align=center;verticalAlign=middle;whiteSpace=wrap;rounded=1;labelBackgroundColor=none;fontColor=#393C56;" parent="1" vertex="1">
          <mxGeometry x="474" y="420" width="60" height="30" as="geometry" />
        </mxCell>
        <mxCell id="VpEEWy_6uG5d31zKWLwI-57" value="(1,n)" style="text;html=1;strokeColor=none;fillColor=none;align=center;verticalAlign=middle;whiteSpace=wrap;rounded=1;labelBackgroundColor=none;fontColor=#393C56;" parent="1" vertex="1">
          <mxGeometry x="590" y="425" width="60" height="30" as="geometry" />
        </mxCell>
        <mxCell id="VpEEWy_6uG5d31zKWLwI-56" value="(1,1)" style="text;html=1;strokeColor=none;fillColor=none;align=center;verticalAlign=middle;whiteSpace=wrap;rounded=1;labelBackgroundColor=none;fontColor=#393C56;" parent="1" vertex="1">
          <mxGeometry x="720" y="320" width="60" height="30" as="geometry" />
        </mxCell>
        <mxCell id="VpEEWy_6uG5d31zKWLwI-63" value="1:N" style="text;html=1;strokeColor=none;fillColor=none;align=center;verticalAlign=middle;whiteSpace=wrap;rounded=1;labelBackgroundColor=none;fontColor=#393C56;" parent="1" vertex="1">
          <mxGeometry x="727" y="365" width="60" height="30" as="geometry" />
        </mxCell>
        <mxCell id="2GHEm7Qps2UwAHZNPZ9A-1" value="1:N" style="text;html=1;strokeColor=none;fillColor=none;align=center;verticalAlign=middle;whiteSpace=wrap;rounded=1;labelBackgroundColor=none;fontColor=#393C56;" parent="1" vertex="1">
          <mxGeometry x="480" y="340" width="60" height="30" as="geometry" />
        </mxCell>
        <mxCell id="GSqwyodtcBmAU-goDF-L-6" style="edgeStyle=orthogonalEdgeStyle;rounded=0;orthogonalLoop=1;jettySize=auto;html=1;entryX=0.5;entryY=0;entryDx=0;entryDy=0;strokeColor=#E07A5F;fontColor=#393C56;fillColor=#F2CC8F;endArrow=none;endFill=0;" parent="1" source="VpEEWy_6uG5d31zKWLwI-1" target="VpEEWy_6uG5d31zKWLwI-36" edge="1">
          <mxGeometry relative="1" as="geometry">
            <Array as="points">
              <mxPoint x="444" y="280" />
            </Array>
          </mxGeometry>
        </mxCell>
        <mxCell id="VpEEWy_6uG5d31zKWLwI-1" value="ZOO" style="whiteSpace=wrap;html=1;align=center;labelBackgroundColor=none;fillColor=#F2CC8F;strokeColor=#E07A5F;fontColor=#393C56;rounded=1;" parent="1" vertex="1">
          <mxGeometry x="230" y="260" width="100" height="40" as="geometry" />
        </mxCell>
        <mxCell id="VpEEWy_6uG5d31zKWLwI-2" value="ESPECIE_ANIMAL" style="whiteSpace=wrap;html=1;align=center;labelBackgroundColor=none;fillColor=#F2CC8F;strokeColor=#E07A5F;fontColor=#393C56;rounded=1;" parent="1" vertex="1">
          <mxGeometry x="680" y="255" width="140" height="40" as="geometry" />
        </mxCell>
        <mxCell id="VpEEWy_6uG5d31zKWLwI-3" value="&lt;u&gt;nombre_zoo&lt;/u&gt;" style="ellipse;whiteSpace=wrap;html=1;align=center;labelBackgroundColor=none;fillColor=#F2CC8F;strokeColor=#E07A5F;fontColor=#393C56;rounded=1;" parent="1" vertex="1">
          <mxGeometry x="-10" y="270" width="100" height="40" as="geometry" />
        </mxCell>
        <mxCell id="VpEEWy_6uG5d31zKWLwI-4" value="ciudad" style="ellipse;whiteSpace=wrap;html=1;align=center;labelBackgroundColor=none;fillColor=#F2CC8F;strokeColor=#E07A5F;fontColor=#393C56;rounded=1;" parent="1" vertex="1">
          <mxGeometry x="10" y="360" width="100" height="40" as="geometry" />
        </mxCell>
        <mxCell id="VpEEWy_6uG5d31zKWLwI-5" value="país" style="ellipse;whiteSpace=wrap;html=1;align=center;labelBackgroundColor=none;fillColor=#F2CC8F;strokeColor=#E07A5F;fontColor=#393C56;rounded=1;" parent="1" vertex="1">
          <mxGeometry x="40" y="420" width="100" height="40" as="geometry" />
        </mxCell>
        <mxCell id="VpEEWy_6uG5d31zKWLwI-6" value="tamaño" style="ellipse;whiteSpace=wrap;html=1;align=center;labelBackgroundColor=none;fillColor=#F2CC8F;strokeColor=#E07A5F;fontColor=#393C56;rounded=1;" parent="1" vertex="1">
          <mxGeometry x="160" y="440" width="100" height="40" as="geometry" />
        </mxCell>
        <mxCell id="VpEEWy_6uG5d31zKWLwI-7" value="presupuesto_anual" style="ellipse;whiteSpace=wrap;html=1;align=center;labelBackgroundColor=none;fillColor=#F2CC8F;strokeColor=#E07A5F;fontColor=#393C56;rounded=1;" parent="1" vertex="1">
          <mxGeometry x="270" y="430" width="120" height="40" as="geometry" />
        </mxCell>
        <mxCell id="VpEEWy_6uG5d31zKWLwI-8" value="nombre_vulgar" style="ellipse;whiteSpace=wrap;html=1;align=center;labelBackgroundColor=none;fillColor=#F2CC8F;strokeColor=#E07A5F;fontColor=#393C56;rounded=1;" parent="1" vertex="1">
          <mxGeometry x="544" y="165" width="100" height="40" as="geometry" />
        </mxCell>
        <mxCell id="VpEEWy_6uG5d31zKWLwI-9" value="&lt;u&gt;nombre_científico&lt;/u&gt;" style="ellipse;whiteSpace=wrap;html=1;align=center;labelBackgroundColor=none;fillColor=#F2CC8F;strokeColor=#E07A5F;fontColor=#393C56;rounded=1;" parent="1" vertex="1">
          <mxGeometry x="620" y="125" width="100" height="40" as="geometry" />
        </mxCell>
        <mxCell id="VpEEWy_6uG5d31zKWLwI-10" value="familia" style="ellipse;whiteSpace=wrap;html=1;align=center;labelBackgroundColor=none;fillColor=#F2CC8F;strokeColor=#E07A5F;fontColor=#393C56;rounded=1;" parent="1" vertex="1">
          <mxGeometry x="720" y="105" width="100" height="40" as="geometry" />
        </mxCell>
        <mxCell id="VpEEWy_6uG5d31zKWLwI-11" value="peligro_extinción" style="ellipse;whiteSpace=wrap;html=1;align=center;labelBackgroundColor=none;fillColor=#F2CC8F;strokeColor=#E07A5F;fontColor=#393C56;rounded=1;" parent="1" vertex="1">
          <mxGeometry x="790" y="165" width="100" height="40" as="geometry" />
        </mxCell>
        <mxCell id="VpEEWy_6uG5d31zKWLwI-12" value="ANIMAL" style="whiteSpace=wrap;html=1;align=center;labelBackgroundColor=none;fillColor=#F2CC8F;strokeColor=#E07A5F;fontColor=#393C56;rounded=1;" parent="1" vertex="1">
          <mxGeometry x="520" y="465" width="100" height="40" as="geometry" />
        </mxCell>
        <mxCell id="VpEEWy_6uG5d31zKWLwI-13" value="&lt;u&gt;nº_identificación&lt;/u&gt;" style="ellipse;whiteSpace=wrap;html=1;align=center;labelBackgroundColor=none;fillColor=#F2CC8F;strokeColor=#E07A5F;fontColor=#393C56;rounded=1;" parent="1" vertex="1">
          <mxGeometry x="270" y="505" width="100" height="40" as="geometry" />
        </mxCell>
        <mxCell id="VpEEWy_6uG5d31zKWLwI-14" value="especie" style="ellipse;whiteSpace=wrap;html=1;align=center;labelBackgroundColor=none;fillColor=#F2CC8F;strokeColor=#E07A5F;fontColor=#393C56;rounded=1;" parent="1" vertex="1">
          <mxGeometry x="280" y="585" width="100" height="40" as="geometry" />
        </mxCell>
        <mxCell id="VpEEWy_6uG5d31zKWLwI-15" value="sexo" style="ellipse;whiteSpace=wrap;html=1;align=center;labelBackgroundColor=none;fillColor=#F2CC8F;strokeColor=#E07A5F;fontColor=#393C56;rounded=1;" parent="1" vertex="1">
          <mxGeometry x="410" y="610" width="100" height="40" as="geometry" />
        </mxCell>
        <mxCell id="VpEEWy_6uG5d31zKWLwI-16" value="año_nacimiento" style="ellipse;whiteSpace=wrap;html=1;align=center;labelBackgroundColor=none;fillColor=#F2CC8F;strokeColor=#E07A5F;fontColor=#393C56;rounded=1;" parent="1" vertex="1">
          <mxGeometry x="540" y="600" width="100" height="40" as="geometry" />
        </mxCell>
        <mxCell id="VpEEWy_6uG5d31zKWLwI-17" value="país_origen" style="ellipse;whiteSpace=wrap;html=1;align=center;labelBackgroundColor=none;fillColor=#F2CC8F;strokeColor=#E07A5F;fontColor=#393C56;rounded=1;" parent="1" vertex="1">
          <mxGeometry x="667" y="585" width="100" height="40" as="geometry" />
        </mxCell>
        <mxCell id="VpEEWy_6uG5d31zKWLwI-18" value="continente" style="ellipse;whiteSpace=wrap;html=1;align=center;labelBackgroundColor=none;fillColor=#F2CC8F;strokeColor=#E07A5F;fontColor=#393C56;rounded=1;" parent="1" vertex="1">
          <mxGeometry x="727" y="510" width="100" height="40" as="geometry" />
        </mxCell>
        <mxCell id="VpEEWy_6uG5d31zKWLwI-19" value="" style="endArrow=none;html=1;rounded=1;exitX=1;exitY=0.5;exitDx=0;exitDy=0;entryX=0;entryY=0.5;entryDx=0;entryDy=0;labelBackgroundColor=none;strokeColor=#E07A5F;fontColor=default;" parent="1" source="VpEEWy_6uG5d31zKWLwI-3" target="VpEEWy_6uG5d31zKWLwI-1" edge="1">
          <mxGeometry relative="1" as="geometry">
            <mxPoint x="80" y="275.1" as="sourcePoint" />
            <mxPoint x="254" y="284.9" as="targetPoint" />
          </mxGeometry>
        </mxCell>
        <mxCell id="VpEEWy_6uG5d31zKWLwI-20" value="" style="endArrow=none;html=1;rounded=1;exitX=0.675;exitY=0.992;exitDx=0;exitDy=0;entryX=0.5;entryY=0;entryDx=0;entryDy=0;labelBackgroundColor=none;strokeColor=#E07A5F;fontColor=default;exitPerimeter=0;" parent="1" source="VpEEWy_6uG5d31zKWLwI-1" target="VpEEWy_6uG5d31zKWLwI-7" edge="1">
          <mxGeometry relative="1" as="geometry">
            <mxPoint x="370" y="300" as="sourcePoint" />
            <mxPoint x="530" y="300" as="targetPoint" />
            <Array as="points" />
          </mxGeometry>
        </mxCell>
        <mxCell id="VpEEWy_6uG5d31zKWLwI-21" value="" style="endArrow=none;html=1;rounded=1;exitX=1;exitY=0.5;exitDx=0;exitDy=0;entryX=0;entryY=1;entryDx=0;entryDy=0;labelBackgroundColor=none;strokeColor=#E07A5F;fontColor=default;" parent="1" source="VpEEWy_6uG5d31zKWLwI-4" target="VpEEWy_6uG5d31zKWLwI-1" edge="1">
          <mxGeometry relative="1" as="geometry">
            <mxPoint x="190" y="340" as="sourcePoint" />
            <mxPoint x="350" y="340" as="targetPoint" />
          </mxGeometry>
        </mxCell>
        <mxCell id="VpEEWy_6uG5d31zKWLwI-22" value="" style="endArrow=none;html=1;rounded=1;exitX=0.25;exitY=1;exitDx=0;exitDy=0;entryX=0.792;entryY=0.013;entryDx=0;entryDy=0;labelBackgroundColor=none;strokeColor=#E07A5F;fontColor=default;entryPerimeter=0;" parent="1" source="VpEEWy_6uG5d31zKWLwI-1" target="VpEEWy_6uG5d31zKWLwI-5" edge="1">
          <mxGeometry relative="1" as="geometry">
            <mxPoint x="280" y="350" as="sourcePoint" />
            <mxPoint x="440" y="350" as="targetPoint" />
          </mxGeometry>
        </mxCell>
        <mxCell id="VpEEWy_6uG5d31zKWLwI-23" value="" style="endArrow=none;html=1;rounded=1;exitX=0.5;exitY=1;exitDx=0;exitDy=0;entryX=0.5;entryY=0;entryDx=0;entryDy=0;labelBackgroundColor=none;strokeColor=#E07A5F;fontColor=default;" parent="1" source="VpEEWy_6uG5d31zKWLwI-1" target="VpEEWy_6uG5d31zKWLwI-6" edge="1">
          <mxGeometry relative="1" as="geometry">
            <mxPoint x="310" y="340" as="sourcePoint" />
            <mxPoint x="470" y="340" as="targetPoint" />
          </mxGeometry>
        </mxCell>
        <mxCell id="VpEEWy_6uG5d31zKWLwI-24" value="" style="endArrow=none;html=1;rounded=1;exitX=0.5;exitY=1;exitDx=0;exitDy=0;entryX=0;entryY=0;entryDx=0;entryDy=0;labelBackgroundColor=none;strokeColor=#E07A5F;fontColor=default;" parent="1" source="VpEEWy_6uG5d31zKWLwI-8" target="VpEEWy_6uG5d31zKWLwI-2" edge="1">
          <mxGeometry relative="1" as="geometry">
            <mxPoint x="550" y="195" as="sourcePoint" />
            <mxPoint x="710" y="195" as="targetPoint" />
          </mxGeometry>
        </mxCell>
        <mxCell id="VpEEWy_6uG5d31zKWLwI-25" value="" style="endArrow=none;html=1;rounded=1;exitX=0.5;exitY=1;exitDx=0;exitDy=0;entryX=0.25;entryY=0;entryDx=0;entryDy=0;labelBackgroundColor=none;strokeColor=#E07A5F;fontColor=default;" parent="1" source="VpEEWy_6uG5d31zKWLwI-9" target="VpEEWy_6uG5d31zKWLwI-2" edge="1">
          <mxGeometry relative="1" as="geometry">
            <mxPoint x="570" y="165" as="sourcePoint" />
            <mxPoint x="730" y="165" as="targetPoint" />
          </mxGeometry>
        </mxCell>
        <mxCell id="VpEEWy_6uG5d31zKWLwI-26" value="" style="endArrow=none;html=1;rounded=1;exitX=0.75;exitY=0;exitDx=0;exitDy=0;entryX=0.5;entryY=1;entryDx=0;entryDy=0;labelBackgroundColor=none;strokeColor=#E07A5F;fontColor=default;" parent="1" source="VpEEWy_6uG5d31zKWLwI-2" target="VpEEWy_6uG5d31zKWLwI-10" edge="1">
          <mxGeometry relative="1" as="geometry">
            <mxPoint x="660" y="195" as="sourcePoint" />
            <mxPoint x="820" y="195" as="targetPoint" />
          </mxGeometry>
        </mxCell>
        <mxCell id="VpEEWy_6uG5d31zKWLwI-27" value="" style="endArrow=none;html=1;rounded=1;entryX=0.5;entryY=1;entryDx=0;entryDy=0;exitX=1;exitY=0;exitDx=0;exitDy=0;labelBackgroundColor=none;strokeColor=#E07A5F;fontColor=default;" parent="1" source="VpEEWy_6uG5d31zKWLwI-2" target="VpEEWy_6uG5d31zKWLwI-11" edge="1">
          <mxGeometry relative="1" as="geometry">
            <mxPoint x="710" y="235" as="sourcePoint" />
            <mxPoint x="870" y="235" as="targetPoint" />
          </mxGeometry>
        </mxCell>
        <mxCell id="VpEEWy_6uG5d31zKWLwI-36" value="posee" style="shape=rhombus;perimeter=rhombusPerimeter;whiteSpace=wrap;html=1;align=center;labelBackgroundColor=none;fillColor=#F2CC8F;strokeColor=#E07A5F;fontColor=#393C56;rounded=1;" parent="1" vertex="1">
          <mxGeometry x="384" y="350" width="120" height="60" as="geometry" />
        </mxCell>
        <mxCell id="VpEEWy_6uG5d31zKWLwI-38" value="" style="endArrow=none;html=1;rounded=1;entryX=0.668;entryY=0.843;entryDx=0;entryDy=0;entryPerimeter=0;labelBackgroundColor=none;strokeColor=#E07A5F;fontColor=default;" parent="1" target="VpEEWy_6uG5d31zKWLwI-36" edge="1">
          <mxGeometry relative="1" as="geometry">
            <mxPoint x="490" y="430" as="sourcePoint" />
            <mxPoint x="637" y="395.5" as="targetPoint" />
          </mxGeometry>
        </mxCell>
        <mxCell id="VpEEWy_6uG5d31zKWLwI-39" value="1:N" style="text;html=1;strokeColor=none;fillColor=none;align=center;verticalAlign=middle;whiteSpace=wrap;rounded=1;labelBackgroundColor=none;fontColor=#393C56;" parent="1" vertex="1">
          <mxGeometry x="480" y="340" width="60" height="30" as="geometry" />
        </mxCell>
        <mxCell id="VpEEWy_6uG5d31zKWLwI-43" value="" style="endArrow=none;html=1;rounded=1;exitX=0.348;exitY=-0.025;exitDx=0;exitDy=0;exitPerimeter=0;entryX=0.75;entryY=1;entryDx=0;entryDy=0;labelBackgroundColor=none;strokeColor=#E07A5F;fontColor=default;" parent="1" source="VpEEWy_6uG5d31zKWLwI-12" target="VpEEWy_6uG5d31zKWLwI-40" edge="1">
          <mxGeometry relative="1" as="geometry">
            <mxPoint x="605" y="439" as="sourcePoint" />
            <mxPoint x="627" y="389" as="targetPoint" />
          </mxGeometry>
        </mxCell>
        <mxCell id="VpEEWy_6uG5d31zKWLwI-44" value="" style="endArrow=none;html=1;rounded=1;exitX=1;exitY=0.5;exitDx=0;exitDy=0;entryX=0;entryY=0.5;entryDx=0;entryDy=0;entryPerimeter=0;labelBackgroundColor=none;strokeColor=#E07A5F;fontColor=default;" parent="1" source="VpEEWy_6uG5d31zKWLwI-13" target="VpEEWy_6uG5d31zKWLwI-12" edge="1">
          <mxGeometry relative="1" as="geometry">
            <mxPoint x="490" y="460" as="sourcePoint" />
            <mxPoint x="650" y="460" as="targetPoint" />
          </mxGeometry>
        </mxCell>
        <mxCell id="VpEEWy_6uG5d31zKWLwI-46" value="" style="endArrow=none;html=1;rounded=1;exitX=1;exitY=0.5;exitDx=0;exitDy=0;entryX=0;entryY=0.5;entryDx=0;entryDy=0;labelBackgroundColor=none;strokeColor=#E07A5F;fontColor=default;" parent="1" source="VpEEWy_6uG5d31zKWLwI-12" target="VpEEWy_6uG5d31zKWLwI-18" edge="1">
          <mxGeometry relative="1" as="geometry">
            <mxPoint x="660" y="460" as="sourcePoint" />
            <mxPoint x="720" y="450" as="targetPoint" />
          </mxGeometry>
        </mxCell>
        <mxCell id="VpEEWy_6uG5d31zKWLwI-48" value="" style="endArrow=none;html=1;rounded=1;exitX=0.5;exitY=0;exitDx=0;exitDy=0;entryX=0.25;entryY=1;entryDx=0;entryDy=0;labelBackgroundColor=none;strokeColor=#E07A5F;fontColor=default;" parent="1" source="VpEEWy_6uG5d31zKWLwI-15" target="VpEEWy_6uG5d31zKWLwI-12" edge="1">
          <mxGeometry relative="1" as="geometry">
            <mxPoint x="525" y="516" as="sourcePoint" />
            <mxPoint x="560" y="490" as="targetPoint" />
          </mxGeometry>
        </mxCell>
        <mxCell id="VpEEWy_6uG5d31zKWLwI-50" value="" style="endArrow=none;html=1;rounded=1;exitX=0.5;exitY=0;exitDx=0;exitDy=0;entryX=0.75;entryY=1;entryDx=0;entryDy=0;labelBackgroundColor=none;strokeColor=#E07A5F;fontColor=default;" parent="1" source="VpEEWy_6uG5d31zKWLwI-16" target="VpEEWy_6uG5d31zKWLwI-12" edge="1">
          <mxGeometry relative="1" as="geometry">
            <mxPoint x="545" y="536" as="sourcePoint" />
            <mxPoint x="580" y="510" as="targetPoint" />
          </mxGeometry>
        </mxCell>
        <mxCell id="VpEEWy_6uG5d31zKWLwI-51" value="" style="endArrow=none;html=1;rounded=1;exitX=0;exitY=0;exitDx=0;exitDy=0;entryX=1;entryY=1;entryDx=0;entryDy=0;labelBackgroundColor=none;strokeColor=#E07A5F;fontColor=default;" parent="1" source="VpEEWy_6uG5d31zKWLwI-17" target="VpEEWy_6uG5d31zKWLwI-12" edge="1">
          <mxGeometry relative="1" as="geometry">
            <mxPoint x="555" y="546" as="sourcePoint" />
            <mxPoint x="590" y="520" as="targetPoint" />
          </mxGeometry>
        </mxCell>
        <mxCell id="VpEEWy_6uG5d31zKWLwI-41" value="(1,1)" style="text;html=1;strokeColor=none;fillColor=none;align=center;verticalAlign=middle;whiteSpace=wrap;rounded=1;labelBackgroundColor=none;fontColor=#393C56;" parent="1" vertex="1">
          <mxGeometry x="414" y="295" width="60" height="30" as="geometry" />
        </mxCell>
        <mxCell id="VpEEWy_6uG5d31zKWLwI-53" value="pertenece" style="shape=rhombus;perimeter=rhombusPerimeter;whiteSpace=wrap;html=1;align=center;labelBackgroundColor=none;fillColor=#F2CC8F;strokeColor=#E07A5F;fontColor=#393C56;rounded=1;" parent="1" vertex="1">
          <mxGeometry x="630" y="350" width="120" height="60" as="geometry" />
        </mxCell>
        <mxCell id="VpEEWy_6uG5d31zKWLwI-54" value="" style="endArrow=none;html=1;rounded=1;exitX=0.5;exitY=0;exitDx=0;exitDy=0;entryX=0.5;entryY=1;entryDx=0;entryDy=0;labelBackgroundColor=none;strokeColor=#E07A5F;fontColor=default;" parent="1" source="VpEEWy_6uG5d31zKWLwI-56" target="VpEEWy_6uG5d31zKWLwI-2" edge="1">
          <mxGeometry relative="1" as="geometry">
            <mxPoint x="660" y="350" as="sourcePoint" />
            <mxPoint x="820" y="350" as="targetPoint" />
          </mxGeometry>
        </mxCell>
        <mxCell id="VpEEWy_6uG5d31zKWLwI-55" value="" style="endArrow=none;html=1;rounded=1;exitX=0.5;exitY=0;exitDx=0;exitDy=0;entryX=0.313;entryY=0.772;entryDx=0;entryDy=0;labelBackgroundColor=none;strokeColor=#E07A5F;fontColor=default;entryPerimeter=0;" parent="1" source="VpEEWy_6uG5d31zKWLwI-57" target="VpEEWy_6uG5d31zKWLwI-53" edge="1">
          <mxGeometry relative="1" as="geometry">
            <mxPoint x="600" y="440" as="sourcePoint" />
            <mxPoint x="760" y="440" as="targetPoint" />
          </mxGeometry>
        </mxCell>
        <mxCell id="VpEEWy_6uG5d31zKWLwI-58" value="" style="endArrow=none;html=1;rounded=1;exitX=0.5;exitY=0;exitDx=0;exitDy=0;entryX=0.5;entryY=0;entryDx=0;entryDy=0;labelBackgroundColor=none;strokeColor=#E07A5F;fontColor=default;" parent="1" source="VpEEWy_6uG5d31zKWLwI-12" target="VpEEWy_6uG5d31zKWLwI-57" edge="1">
          <mxGeometry relative="1" as="geometry">
            <mxPoint x="595" y="465" as="sourcePoint" />
            <mxPoint x="610" y="410" as="targetPoint" />
          </mxGeometry>
        </mxCell>
        <mxCell id="VpEEWy_6uG5d31zKWLwI-61" value="" style="endArrow=none;html=1;rounded=1;exitX=1;exitY=0;exitDx=0;exitDy=0;labelBackgroundColor=none;strokeColor=#E07A5F;fontColor=default;" parent="1" source="VpEEWy_6uG5d31zKWLwI-53" edge="1">
          <mxGeometry relative="1" as="geometry">
            <mxPoint x="740" y="380" as="sourcePoint" />
            <mxPoint x="740" y="340" as="targetPoint" />
          </mxGeometry>
        </mxCell>
        <mxCell id="VpEEWy_6uG5d31zKWLwI-62" value="" style="endArrow=none;html=1;rounded=1;exitX=0;exitY=1;exitDx=0;exitDy=0;entryX=0.5;entryY=0;entryDx=0;entryDy=0;labelBackgroundColor=none;strokeColor=#E07A5F;fontColor=default;" parent="1" source="VpEEWy_6uG5d31zKWLwI-12" target="VpEEWy_6uG5d31zKWLwI-14" edge="1">
          <mxGeometry relative="1" as="geometry">
            <mxPoint x="700" y="460" as="sourcePoint" />
            <mxPoint x="860" y="460" as="targetPoint" />
          </mxGeometry>
        </mxCell>
        <mxCell id="ryt1e1r8Qoiljj_NT1i1-1" value="" style="curved=1;endArrow=classic;html=1;rounded=0;" edge="1" parent="1">
          <mxGeometry width="50" height="50" relative="1" as="geometry">
            <mxPoint x="830" y="280" as="sourcePoint" />
            <mxPoint x="630" y="480" as="targetPoint" />
            <Array as="points">
              <mxPoint x="870" y="310" />
              <mxPoint x="810" y="410" />
            </Array>
          </mxGeometry>
        </mxCell>
        <mxCell id="ryt1e1r8Qoiljj_NT1i1-2" value="" style="curved=1;endArrow=classic;html=1;rounded=0;exitX=0.75;exitY=0;exitDx=0;exitDy=0;" edge="1" parent="1" source="VpEEWy_6uG5d31zKWLwI-1">
          <mxGeometry width="50" height="50" relative="1" as="geometry">
            <mxPoint x="310" y="230" as="sourcePoint" />
            <mxPoint x="560" y="440" as="targetPoint" />
            <Array as="points">
              <mxPoint x="350" y="210" />
              <mxPoint x="410" y="170" />
              <mxPoint x="510" y="200" />
            </Array>
          </mxGeometry>
        </mxCell>
      </root>
    </mxGraphModel>
  </diagram>
</mxfile>
